<svg xmlns="http://www.w3.org/2000/svg" version="1" viewBox="0 0 300 300">
    <path d="M54.5 49.7c.3 6 1 56.2 1.6 111.8.6 55.6 1.2 101.1 1.3 101.1.4.4 183.7-16.4 184.2-16.8.3-.3.2-9.5-.3-20.4l-.8-19.9-12 .3-69.3 1.3c-31.5.6-57.5.9-57.9.6-.3-.4-1.2-32.3-1.9-70.9L97.8 57l-.3-9.4-20-4.3c-11-2.3-20.8-4.2-21.8-4.3-1.6 0-1.7.9-1.2 10.7z"/>
    <path d="M116.3 75.7c.4 13 .8 23.8 1.1 24 .2.2 17.4 2.7 38.2 5.6l37.9 5.3.6 11.4c.4 6.3 1 23.8 1.4 38.7l.8 27.3h43.3l-.3-5.8-2.4-55.7c-1.1-27.5-2.1-50-2.2-50.1-.5-.2-117.3-24.4-118.1-24.4-.5 0-.7 9.6-.3 23.7z"/>
</svg>